<svg width="20" height="21" viewBox="0 0 20 21" fill="none" xmlns="http://www.w3.org/2000/svg">
<path d="M10.8334 4.75065C10.8334 5.67113 8.78139 6.41732 6.25008 6.41732C3.71878 6.41732 1.66675 5.67113 1.66675 4.75065M10.8334 4.75065C10.8334 3.83018 8.78139 3.08398 6.25008 3.08398C3.71878 3.08398 1.66675 3.83018 1.66675 4.75065M10.8334 4.75065V6.00065M1.66675 4.75065V14.7507C1.66675 15.6711 3.71878 16.4173 6.25008 16.4173M6.25008 9.75065C6.10963 9.75065 5.97065 9.74835 5.83341 9.74386C3.49737 9.66731 1.66675 8.95338 1.66675 8.08398M6.25008 13.084C3.71878 13.084 1.66675 12.3378 1.66675 11.4173M18.3334 10.1673C18.3334 11.0878 16.2814 11.834 13.7501 11.834C11.2188 11.834 9.16675 11.0878 9.16675 10.1673M18.3334 10.1673C18.3334 9.24684 16.2814 8.50065 13.7501 8.50065C11.2188 8.50065 9.16675 9.24684 9.16675 10.1673M18.3334 10.1673V16.4173C18.3334 17.3378 16.2814 18.084 13.7501 18.084C11.2188 18.084 9.16675 17.3378 9.16675 16.4173V10.1673M18.3334 13.2923C18.3334 14.2128 16.2814 14.959 13.7501 14.959C11.2188 14.959 9.16675 14.2128 9.16675 13.2923" stroke="currentColor" stroke-width="1.5" stroke-linecap="round" stroke-linejoin="round"/>
</svg>
